<?xml version="1.0" standalone="no"?><!DOCTYPE svg PUBLIC "-//W3C//DTD SVG 1.1//EN" "http://www.w3.org/Graphics/SVG/1.1/DTD/svg11.dtd"><svg class="icon" height="512" viewBox="0 0 1024 1024" version="1.1" xmlns="http://www.w3.org/2000/svg"><path d="M610.869 547.311c0-19.502 15.805-35.311 35.31-35.311 19.501 0 35.31 15.809 35.31 35.311v52.963c0 19.502-15.805 35.311-35.31 35.311-19.501 0-35.31-15.809-35.31-35.311v-52.963z m-268.359 0c0-19.502 15.805-35.311 35.31-35.311 19.501 0 35.31 15.809 35.31 35.311v52.963c0 19.502-15.805 35.311-35.31 35.311-19.501 0-35.31-15.809-35.31-35.311v-52.963zM512 1024c282.77 0 512-229.23 512-512S794.77 0 512 0 0 229.23 0 512s229.23 512 512 512z m25.605-697.379h74.14c108.724 0 196.862 88.142 196.862 196.855v13.241h7.067c11.698 0 21.182 9.488 21.182 21.187v70.619c0 11.701-9.487 21.187-21.182 21.187h-7.067v14.12c0 31.204-25.3 56.501-56.494 56.501H271.887c-31.201 0-56.494-25.303-56.494-56.501v-14.12h-7.066c-11.698 0-21.182-9.488-21.182-21.187v-70.619c0-11.701 9.487-21.187 21.182-21.187h7.066v-13.241c0-108.72 88.13-196.855 196.862-196.855h84.291l-0.298-34.038-53.104-9.674 94.507-120.482-10.801 82.666 54.004 7.915-43.249 73.613z" /></svg>